<?xml version="1.0" encoding="UTF-8"?>
<svg xmlns="http://www.w3.org/2000/svg" viewBox="0 0 512 512" width="512" height="512">
  <defs>
    <!-- Main background: deep orange gradient with metallic feel -->
    <linearGradient id="bgGrad" x1="0%" y1="0%" x2="100%" y2="100%">
      <stop offset="0%" stop-color="#fb923c"/>
      <stop offset="30%" stop-color="#f97316"/>
      <stop offset="70%" stop-color="#ea580c"/>
      <stop offset="100%" stop-color="#c2410c"/>
    </linearGradient>

    <!-- Inner bevel highlight -->
    <linearGradient id="bevelTop" x1="0%" y1="0%" x2="0%" y2="100%">
      <stop offset="0%" stop-color="#ffffff" stop-opacity="0.22"/>
      <stop offset="100%" stop-color="#ffffff" stop-opacity="0"/>
    </linearGradient>
    <linearGradient id="bevelBottom" x1="0%" y1="100%" x2="0%" y2="0%">
      <stop offset="0%" stop-color="#000000" stop-opacity="0.15"/>
      <stop offset="100%" stop-color="#000000" stop-opacity="0"/>
    </linearGradient>

    <!-- V letter: warm white metallic -->
    <linearGradient id="vGrad" x1="0%" y1="0%" x2="0%" y2="100%">
      <stop offset="0%" stop-color="#ffffff"/>
      <stop offset="35%" stop-color="#fef9c3"/>
      <stop offset="65%" stop-color="#fef3c7"/>
      <stop offset="100%" stop-color="#fde68a"/>
    </linearGradient>
    <!-- V letter side shadow for depth -->
    <linearGradient id="vShadow" x1="0%" y1="0%" x2="100%" y2="0%">
      <stop offset="0%" stop-color="#000000" stop-opacity="0.15"/>
      <stop offset="100%" stop-color="#000000" stop-opacity="0"/>
    </linearGradient>

    <!-- Coin badge gradient -->
    <linearGradient id="coinGrad" x1="0%" y1="0%" x2="100%" y2="100%">
      <stop offset="0%" stop-color="#fef08a"/>
      <stop offset="40%" stop-color="#fbbf24"/>
      <stop offset="100%" stop-color="#d97706"/>
    </linearGradient>
    <linearGradient id="coinInner" x1="0%" y1="0%" x2="0%" y2="100%">
      <stop offset="0%" stop-color="#ffffff" stop-opacity="0.3"/>
      <stop offset="100%" stop-color="#000000" stop-opacity="0.1"/>
    </linearGradient>

    <!-- Outer glow filter -->
    <filter id="outerGlow" x="-30%" y="-30%" width="160%" height="160%">
      <feGaussianBlur in="SourceGraphic" stdDeviation="12" result="blur"/>
      <feColorMatrix in="blur" type="matrix"
        values="1 0 0 0 0
                0 0.6 0 0 0
                0 0 0 0 0
                0 0 0 0.3 0" result="coloredBlur"/>
      <feMerge>
        <feMergeNode in="coloredBlur"/>
        <feMergeNode in="SourceGraphic"/>
      </feMerge>
    </filter>

    <!-- Soft drop shadow for V -->
    <filter id="vShadowFilter" x="-20%" y="-10%" width="140%" height="130%">
      <feDropShadow dx="0" dy="6" stdDeviation="8" flood-color="#000000" flood-opacity="0.25"/>
    </filter>

    <!-- Coin shadow -->
    <filter id="coinShadow" x="-30%" y="-30%" width="160%" height="160%">
      <feDropShadow dx="0" dy="4" stdDeviation="6" flood-color="#000000" flood-opacity="0.3"/>
    </filter>

    <!-- Shine sweep -->
    <linearGradient id="shineGrad" x1="0%" y1="0%" x2="100%" y2="100%">
      <stop offset="0%" stop-color="#ffffff" stop-opacity="0"/>
      <stop offset="45%" stop-color="#ffffff" stop-opacity="0"/>
      <stop offset="50%" stop-color="#ffffff" stop-opacity="0.15"/>
      <stop offset="55%" stop-color="#ffffff" stop-opacity="0"/>
      <stop offset="100%" stop-color="#ffffff" stop-opacity="0"/>
    </linearGradient>
  </defs>

  <!-- Background rounded square -->
  <rect x="0" y="0" width="512" height="512" rx="115" ry="115" fill="url(#bgGrad)"/>

  <!-- Inner bevel highlights for depth -->
  <rect x="0" y="0" width="512" height="240" rx="115" ry="115" fill="url(#bevelTop)"/>
  <rect x="0" y="270" width="512" height="242" rx="115" ry="115" fill="url(#bevelBottom)"/>

  <!-- Outer ambient glow behind everything -->
  <rect x="0" y="0" width="512" height="512" rx="115" ry="115"
        fill="none" stroke="#fbbf24" stroke-width="4" stroke-opacity="0.25"
        filter="url(#outerGlow)" opacity="0.5"/>

  <!-- V letter — main with drop shadow for depth -->
  <g filter="url(#vShadowFilter)">
    <!-- Shadow layer for depth illusion -->
    <path
      d="M 130 130 L 195 130 L 256 340 L 317 130 L 382 130 L 290 410 L 222 410 Z"
      fill="#000000" opacity="0.12" transform="translate(4, 4)"
    />
    <!-- Main V shape -->
    <path
      d="M 130 130
         L 195 130
         L 256 340
         L 317 130
         L 382 130
         L 290 410
         L 222 410
         Z"
      fill="url(#vGrad)"
      stroke="#ffffff"
      stroke-width="2.5"
      stroke-opacity="0.6"
    />
    <!-- V inner bevel (left arm highlight) -->
    <path
      d="M 140 130 L 190 130 L 256 320 L 256 410 L 222 410 L 290 410 L 290 350 L 227 130 Z"
      fill="#ffffff"
      fill-opacity="0.08"
    />
    <!-- V inner shadow (right arm depth) -->
    <path
      d="M 322 130 L 372 130 L 285 410 L 222 410 L 256 410 L 256 320 L 217 130 Z"
      fill="#000000"
      fill-opacity="0.08"
    />
  </g>

  <!-- Cashback coin badge -->
  <g transform="translate(355, 355)" filter="url(#coinShadow)">
    <!-- Coin outer ring -->
    <circle cx="0" cy="0" r="72" fill="url(#coinGrad)"/>
    <!-- Coin inner bevel -->
    <circle cx="0" cy="0" r="62" fill="url(#coinInner)"/>
    <!-- Coin highlight arc -->
    <path d="M -45 -35 A 55 55 0 0 1 45 -35" fill="none" stroke="#ffffff" stroke-width="4" stroke-opacity="0.4" stroke-linecap="round"/>
    <!-- Percent sign -->
    <text x="0" y="22"
          text-anchor="middle"
          font-family="-apple-system, BlinkMacSystemFont, 'Segoe UI', Roboto, sans-serif"
          font-size="72"
          font-weight="900"
          fill="#92400e"
          letter-spacing="-2">%</text>
    <!-- Tiny sparkle on coin -->
    <circle cx="-20" cy="-30" r="5" fill="#ffffff" fill-opacity="0.5"/>
  </g>

  <!-- Shine sweep across the icon (subtle) -->
  <rect x="0" y="0" width="512" height="512" rx="115" ry="115" fill="url(#shineGrad)"/>

  <!-- Top-left corner sparkle -->
  <g transform="translate(65, 65)">
    <circle cx="0" cy="0" r="8" fill="#fbbf24" opacity="0.6"/>
  </g>
</svg>
